# Blender 5.0.1
# www.blender.org
o Cylinder
v 0.000000 -0.487313 -0.216356
v 0.000000 -0.500000 -0.203221
v -0.101611 -0.500000 -0.175995
v -0.108178 -0.487313 -0.187370
v -0.175995 -0.500000 -0.101611
v -0.187370 -0.487313 -0.108178
v -0.203221 -0.500000 -0.000000
v -0.216356 -0.487313 0.000000
v -0.175995 -0.500000 0.101611
v -0.187370 -0.487313 0.108178
v -0.101611 -0.500000 0.175995
v -0.108178 -0.487313 0.187370
v -0.000000 -0.500000 0.203221
v 0.000000 -0.487313 0.216356
v 0.101611 -0.500000 0.175995
v 0.108178 -0.487313 0.187370
v 0.175995 -0.500000 0.101611
v 0.187370 -0.487313 0.108178
v 0.203221 -0.500000 0.000000
v 0.216356 -0.487313 0.000000
v 0.175995 -0.500000 -0.101611
v 0.187370 -0.487313 -0.108178
v 0.101611 -0.500000 -0.175995
v 0.108178 -0.487313 -0.187370
v -0.108178 -0.376145 -0.187370
v -0.101611 -0.363457 -0.175995
v -0.000000 -0.363457 -0.203221
v 0.000000 -0.376145 -0.216356
v -0.187370 -0.376145 -0.108178
v -0.175995 -0.363457 -0.101611
v -0.216356 -0.376145 0.000000
v -0.203221 -0.363457 0.000000
v -0.187370 -0.376145 0.108178
v -0.175995 -0.363457 0.101611
v -0.108178 -0.376145 0.187370
v -0.101611 -0.363457 0.175995
v 0.000000 -0.376145 0.216356
v 0.000000 -0.363457 0.203221
v 0.108178 -0.376145 0.187370
v 0.101611 -0.363457 0.175995
v 0.187370 -0.376145 0.108178
v 0.175995 -0.363457 0.101611
v 0.216356 -0.376145 0.000000
v 0.203221 -0.363457 -0.000000
v 0.187370 -0.376145 -0.108178
v 0.175995 -0.363457 -0.101611
v 0.108178 -0.376145 -0.187370
v 0.101611 -0.363457 -0.175995
vn -0.4974 -0.1026 -0.8615
vn -0.0000 -0.1026 -0.9947
vn -0.0000 -0.9998 -0.0210
vn -0.0106 -0.9998 -0.0182
vn -0.8615 -0.1026 -0.4974
vn -0.0182 -0.9998 -0.0105
vn -0.9947 -0.1026 -0.0000
vn -0.0210 -0.9998 0.0001
vn -0.8615 -0.1026 0.4974
vn -0.0182 -0.9998 0.0106
vn -0.4974 -0.1026 0.8615
vn -0.0105 -0.9998 0.0182
vn -0.0000 -0.1026 0.9947
vn -0.0000 -0.9998 0.0210
vn 0.4974 -0.1026 0.8615
vn 0.0106 -0.9998 0.0182
vn 0.8615 -0.1026 0.4974
vn 0.0182 -0.9998 0.0105
vn 0.9947 -0.1026 -0.0000
vn 0.0210 -0.9998 -0.0001
vn 0.8615 -0.1026 -0.4974
vn 0.0182 -0.9998 -0.0106
vn 0.4974 -0.1026 -0.8615
vn 0.0105 -0.9998 -0.0182
vn -0.0105 0.9998 -0.0182
vn -0.0000 0.9998 -0.0210
vn -0.0000 0.1026 -0.9947
vn -0.4974 0.1026 -0.8614
vn -0.0182 0.9998 -0.0105
vn -0.8615 0.1026 -0.4973
vn -0.0210 0.9998 -0.0000
vn -0.9947 0.1026 -0.0000
vn -0.0182 0.9998 0.0105
vn -0.8614 0.1026 0.4974
vn -0.0105 0.9998 0.0182
vn -0.4973 0.1026 0.8615
vn -0.0000 0.9998 0.0210
vn -0.0000 0.1026 0.9947
vn 0.0105 0.9998 0.0182
vn 0.4974 0.1026 0.8614
vn 0.0182 0.9998 0.0105
vn 0.8615 0.1026 0.4973
vn 0.0210 0.9998 -0.0000
vn 0.9947 0.1026 -0.0000
vn 0.0182 0.9998 -0.0105
vn 0.8614 0.1026 -0.4974
vn 0.0105 0.9998 -0.0182
vn 0.4973 0.1026 -0.8615
vt 0.500000 1.000000
vt 0.750000 0.933013
vt 0.734823 0.906725
vt 0.500000 0.969646
vt 0.250000 0.933013
vt 0.265177 0.906725
vt 0.066987 0.750000
vt 0.093275 0.734823
vt 0.000000 0.500000
vt 0.030354 0.500000
vt 0.066987 0.250000
vt 0.093275 0.265177
vt 0.250000 0.066987
vt 0.265177 0.093275
vt 0.500000 0.000000
vt 0.500000 0.030354
vt 0.750000 0.066987
vt 0.734823 0.093275
vt 0.933013 0.250000
vt 0.906725 0.265177
vt 1.000000 0.500000
vt 0.969646 0.500000
vt 0.933013 0.750000
vt 0.906725 0.734823
vt 0.500000 0.969646
vt 0.734823 0.906725
vt 0.906725 0.734823
vt 0.969646 0.500000
vt 0.734823 0.093275
vt 0.265177 0.093275
vt 0.093275 0.265177
vt 0.030354 0.500000
vt 0.093275 0.734823
vt 0.000000 0.092916
vt 1.000000 0.092916
vt 1.000000 0.907084
vt 0.000000 0.907084
vt 0.000000 0.092916
vt 1.000000 0.092916
vt 1.000000 0.907084
s 1
f 4/1/1 1/2/2 2/3/3 3/4/4
f 6/5/5 4/1/1 3/4/4 5/6/6
f 8/7/7 6/5/5 5/6/6 7/8/8
f 10/9/9 8/7/7 7/8/8 9/10/10
f 12/11/11 10/9/9 9/10/10 11/12/12
f 14/13/13 12/11/11 11/12/12 13/14/14
f 16/15/15 14/13/13 13/14/14 15/16/16
f 18/17/17 16/15/15 15/16/16 17/18/18
f 20/19/19 18/17/17 17/18/18 19/20/20
f 22/21/21 20/19/19 19/20/20 21/22/22
f 24/23/23 22/21/21 21/22/22 23/24/24
f 1/2/2 24/23/23 23/24/24 2/3/3
f 26/25/25 27/6/26 28/5/27 25/1/28
f 30/26/29 26/25/25 25/1/28 29/2/30
f 32/27/31 30/26/29 29/2/30 31/23/32
f 34/28/33 32/27/31 31/23/32 33/21/34
f 36/20/35 34/28/33 33/21/34 35/19/36
f 38/29/37 36/20/35 35/19/36 37/17/38
f 40/16/39 38/29/37 37/17/38 39/15/40
f 42/30/41 40/16/39 39/15/40 41/13/42
f 44/31/43 42/30/41 41/13/42 43/11/44
f 46/32/45 44/31/43 43/11/44 45/9/46
f 48/33/47 46/32/45 45/9/46 47/7/48
f 27/6/26 48/33/47 47/7/48 28/5/27
f 1/34/2 4/35/1 25/36/28 28/37/27
f 3/4/4 2/3/3 23/24/24 21/22/22 19/20/20 17/18/18 15/16/16 13/14/14 11/12/12 9/10/10 7/8/8 5/6/6
f 24/34/23 1/35/2 28/36/27 47/37/48
f 4/38/1 6/39/5 29/40/30 25/37/28
f 6/34/5 8/35/7 31/36/32 29/37/30
f 8/34/7 10/35/9 33/36/34 31/37/32
f 10/38/9 12/39/11 35/40/36 33/37/34
f 12/34/11 14/35/13 37/36/38 35/37/36
f 14/34/13 16/35/15 39/36/40 37/37/38
f 16/38/15 18/39/17 41/40/42 39/37/40
f 18/34/17 20/35/19 43/36/44 41/37/42
f 20/34/19 22/35/21 45/36/46 43/37/44
f 22/38/21 24/39/23 47/40/48 45/37/46
f 26/25/25 30/26/29 32/27/31 34/28/33 36/20/35 38/29/37 40/16/39 42/30/41 44/31/43 46/32/45 48/33/47 27/6/26
