# Blender 5.0.1
# www.blender.org
o Driveshaft
v 0.000000 0.089531 -0.089531
v 0.000000 0.089531 0.089531
v 0.038846 0.080665 -0.089531
v 0.038846 0.080665 0.089531
v 0.069998 0.055822 -0.089531
v 0.069998 0.055822 0.089531
v 0.087286 0.019923 -0.089531
v 0.087286 0.019923 0.089531
v 0.087286 -0.019923 -0.089531
v 0.087286 -0.019923 0.089531
v 0.069998 -0.055822 -0.089531
v 0.069998 -0.055822 0.089531
v 0.038846 -0.080665 -0.089531
v 0.038846 -0.080665 0.089531
v 0.000000 -0.089531 -0.089531
v 0.000000 -0.089531 0.089531
v -0.038846 -0.080665 -0.089531
v -0.038846 -0.080665 0.089531
v -0.069998 -0.055822 -0.089531
v -0.069998 -0.055822 0.089531
v -0.087286 -0.019923 -0.089531
v -0.087286 -0.019923 0.089531
v -0.087286 0.019923 -0.089531
v -0.087286 0.019923 0.089531
v -0.069998 0.055822 -0.089531
v -0.069998 0.055822 0.089531
v -0.038846 0.080665 -0.089531
v -0.038846 0.080665 0.089531
vn -0.0000 1.0000 -0.0000
vn 0.4339 0.9010 -0.0000
vn 0.7818 0.6235 -0.0000
vn 0.9749 0.2225 -0.0000
vn 0.9749 -0.2225 -0.0000
vn 0.7818 -0.6235 -0.0000
vn 0.4339 -0.9010 -0.0000
vn -0.0000 -1.0000 -0.0000
vn -0.4339 -0.9010 -0.0000
vn -0.7818 -0.6235 -0.0000
vn -0.9749 -0.2225 -0.0000
vn -0.9749 0.2225 -0.0000
vn -0.7818 0.6235 -0.0000
vn -0.0000 -0.0000 1.0000
vn -0.4339 0.9010 -0.0000
vn -0.0000 -0.0000 -1.0000
s 1
f 1//1 2//1 4//2 3//2
f 3//2 4//2 6//3 5//3
f 5//3 6//3 8//4 7//4
f 7//4 8//4 10//5 9//5
f 9//5 10//5 12//6 11//6
f 11//6 12//6 14//7 13//7
f 13//7 14//7 16//8 15//8
f 15//8 16//8 18//9 17//9
f 17//9 18//9 20//10 19//10
f 19//10 20//10 22//11 21//11
f 21//11 22//11 24//12 23//12
f 23//12 24//12 26//13 25//13
f 4//14 2//14 28//14 26//14 24//14 22//14 20//14 18//14 16//14 14//14 12//14 10//14 8//14 6//14
f 25//13 26//13 28//15 27//15
f 27//15 28//15 2//1 1//1
f 1//16 3//16 5//16 7//16 9//16 11//16 13//16 15//16 17//16 19//16 21//16 23//16 25//16 27//16
